<svg id="wave" style="transform:rotate(180deg); transition: 0.3s" viewBox="0 0 1440 250" version="1.1" xmlns="http://www.w3.org/2000/svg"><defs><linearGradient id="sw-gradient-0" x1="0" x2="0" y1="1" y2="0"><stop stop-color="rgba(25, 25, 25, 1)" offset="0%"></stop><stop stop-color="rgba(25, 25, 25, 1)" offset="100%"></stop></linearGradient></defs><path style="transform:translate(0, 0px); opacity:1" fill="url(#sw-gradient-0)" d="M0,150L80,154.2C160,158,320,167,480,166.7C640,167,800,158,960,133.3C1120,108,1280,67,1440,75C1600,83,1760,142,1920,150C2080,158,2240,117,2400,120.8C2560,125,2720,175,2880,195.8C3040,217,3200,208,3360,195.8C3520,183,3680,167,3840,145.8C4000,125,4160,100,4320,104.2C4480,108,4640,142,4800,129.2C4960,117,5120,58,5280,50C5440,42,5600,83,5760,87.5C5920,92,6080,58,6240,54.2C6400,50,6560,75,6720,79.2C6880,83,7040,67,7200,62.5C7360,58,7520,67,7680,79.2C7840,92,8000,108,8160,100C8320,92,8480,58,8640,75C8800,92,8960,158,9120,166.7C9280,175,9440,125,9600,95.8C9760,67,9920,58,10080,75C10240,92,10400,133,10560,150C10720,167,10880,158,11040,129.2C11200,100,11360,50,11440,25L11520,0L11520,250L11440,250C11360,250,11200,250,11040,250C10880,250,10720,250,10560,250C10400,250,10240,250,10080,250C9920,250,9760,250,9600,250C9440,250,9280,250,9120,250C8960,250,8800,250,8640,250C8480,250,8320,250,8160,250C8000,250,7840,250,7680,250C7520,250,7360,250,7200,250C7040,250,6880,250,6720,250C6560,250,6400,250,6240,250C6080,250,5920,250,5760,250C5600,250,5440,250,5280,250C5120,250,4960,250,4800,250C4640,250,4480,250,4320,250C4160,250,4000,250,3840,250C3680,250,3520,250,3360,250C3200,250,3040,250,2880,250C2720,250,2560,250,2400,250C2240,250,2080,250,1920,250C1760,250,1600,250,1440,250C1280,250,1120,250,960,250C800,250,640,250,480,250C320,250,160,250,80,250L0,250Z"></path></svg>