<svg xmlns="http://www.w3.org/2000/svg" xmlns:xlink="http://www.w3.org/1999/xlink" viewBox="0 0 642.33 642.33">
  <defs>
    <style>
      .cls-1,
      .cls-3 {
        fill: none;
      }

      .cls-2 {
        clip-path: url(#clip-path);
      }

      .cls-3,
      .cls-4,
      .cls-5,
      .cls-6,
      .cls-7,
      .cls-8 {
        stroke: #ff5e62;
      }

      .cls-3,
      .cls-4,
      .cls-5,
      .cls-6 {
        stroke-miterlimit: 8;
      }

      .cls-3,
      .cls-4 {
        stroke-width: 9.33px;
      }

      .cls-4,
      .cls-5,
      .cls-6,
      .cls-7,
      .cls-8,
      .cls-9 {
        fill: #ff5e62;
      }

      .cls-5,
      .cls-6 {
        stroke-width: 1.33px;
      }

      .cls-6,
      .cls-8,
      .cls-9 {
        fill-rule: evenodd;
      }

      .cls-7 {
        stroke-miterlimit: 8;
        stroke-width: 1.33px;
      }

      .cls-8 {
        stroke-miterlimit: 8;
        stroke-width: 1.33px;
      }
    </style>
    <clipPath id="clip-path" transform="translate(-0.83 -0.83)">
      <rect class="cls-1" width="644" height="644" />
    </clipPath>
  </defs>
  <title>logo</title>
  <g id="Layer_2" data-name="Layer 2">
    <g id="Layer_1-2" data-name="Layer 1">
      <g class="cls-2">
        <path class="cls-3" d="M192.37,6.71l1.2-1.21H450.43L638.5,193.57V450.43L450.43,638.5H193.57L5.5,450.43V193.57L112,87.08" transform="translate(-0.83 -0.83)" />
        <path class="cls-3" d="M192.29,165,321.5,91.5l207,117.73V450.77L321.5,568.5l-207-117.73V209.23l3.62-.35" transform="translate(-0.83 -0.83)" />
        <path class="cls-4" d="M323.5,175.5l130,73.14V402.36l-130,73.14-130-73.14V248.64Z" transform="translate(-0.83 -0.83)" />
        <path class="cls-3" d="M193.69.84l-.14,400.92" transform="translate(-0.83 -0.83)" />
        <path class="cls-3" d="M114.5,85.5V209.29" transform="translate(-0.83 -0.83)" />
        <rect class="cls-5" x="3.67" y="190.77" width="110" height="261.9" />
        <rect class="cls-5" x="525.67" y="192.17" width="114.69" height="253.95" />
        <path class="cls-6" d="M73.06,496.81l29.51-55,212,123.24-29.51,55Z" transform="translate(-0.83 -0.83)" />
        <polygon class="cls-7" points="573.04 518.03 531.19 444.45 369.29 538.44 411.13 612.03 573.04 518.03" />
        <path class="cls-6" d="M394,64.76,448.13,2.45,641,196l-54.17,62.32Z" transform="translate(-0.83 -0.83)" />
        <path class="cls-6" d="M117.7,206.66v-107l-105,107Z" transform="translate(-0.83 -0.83)" />
        <path class="cls-6" d="M80.33,524.44,5.39,453.14l103-9.14Z" transform="translate(-0.83 -0.83)" />
        <path class="cls-6" d="M373.73,538.6l16.66,35.55L313.27,570Z" transform="translate(-0.83 -0.83)" />
        <path class="cls-8" d="M244.82,136.75,195.09,74.49l-.74,91.92Z" transform="translate(-0.83 -0.83)" />
        <path class="cls-6" d="M60,508.16l36.8-36.24L229.21,604.11l-36.8,36.24Z" transform="translate(-0.83 -0.83)" />
        <path class="cls-8" d="M238.64,138.31l113-68L192,78.88Z" transform="translate(-0.83 -0.83)" />
        <path class="cls-6" d="M442.49,577.14l5.63,63.21,118.93-115Z" transform="translate(-0.83 -0.83)" />
        <rect class="cls-5" x="192.67" y="566.67" width="128" height="70" />
        <rect class="cls-5" x="196.56" y="2.91" width="249.2" height="84.82" />
        <path class="cls-8" d="M401.08,57.36,566.46,232.68,316.79,92.18Z" transform="translate(-0.83 -0.83)" />
        <rect class="cls-5" x="524.5" y="417.25" width="103.18" height="81.61" transform="translate(-155.99 540.69) rotate(-45)" />
        <path class="cls-9" d="M119.24,191.6V72.86L1.56,191.6Z" transform="translate(-0.83 -0.83)" />
        <polygon class="cls-7" points="447.28 639.88 451.2 565.28 289.29 563.81 285.37 638.41 447.28 639.88" />
        <rect class="cls-5" x="-7.39" y="138.04" width="138.61" height="14.93" transform="translate(-85.59 85.56) rotate(-45)" />
      </g>
    </g>
  </g>
</svg>